<svg xmlns="http://www.w3.org/2000/svg" viewBox="0 0 1440 320">
	<path fill="#f3f4f5" fill-opacity="1" d="M0,32L68.6,256L137.1,320L205.7,192L274.3,224L342.9,64L411.4,96L480,128L548.6,288L617.1,128L685.7,192L754.3,256L822.9,32L891.4,256L960,192L1028.6,288L1097.1,96L1165.7,64L1234.3,224L1302.9,192L1371.4,160L1440,0L1440,0L1371.4,0L1302.9,0L1234.3,0L1165.7,0L1097.1,0L1028.6,0L960,0L891.4,0L822.9,0L754.3,0L685.7,0L617.1,0L548.6,0L480,0L411.4,0L342.9,0L274.3,0L205.7,0L137.1,0L68.6,0L0,0Z"></path>
</svg>