<svg xmlns="http://www.w3.org/2000/svg" viewBox="0 0 1440 320">
	<path fill="#f3f4f5" fill-opacity="1" d="M0,32L68.6,256L137.1,320L205.7,192L274.3,224L342.9,64L411.4,96L480,128L548.6,288L617.1,128L685.7,192L754.3,256L822.9,32L891.4,256L960,192L1028.6,288L1097.1,96L1165.7,64L1234.3,224L1302.9,192L1371.4,160L1440,0L1440,320L1371.4,320L1302.9,320L1234.3,320L1165.7,320L1097.1,320L1028.6,320L960,320L891.4,320L822.9,320L754.3,320L685.7,320L617.1,320L548.6,320L480,320L411.4,320L342.9,320L274.3,320L205.7,320L137.1,320L68.6,320L0,320Z"></path>
</svg>